<?xml version="1.0" standalone="no"?>
<!DOCTYPE svg PUBLIC "-//W3C//DTD SVG 20010904//EN"
 "http://www.w3.org/TR/2001/REC-SVG-20010904/DTD/svg10.dtd">
<svg version="1.0" xmlns="http://www.w3.org/2000/svg"
 width="256.000000pt" height="256.000000pt" viewBox="0 0 256.000000 256.000000"
 preserveAspectRatio="xMidYMid meet">

<g transform="translate(0.000000,256.000000) scale(0.100000,-0.100000)"
fill="#000000" stroke="none">
<path d="M738 2207 c-313 -194 -568 -355 -568 -358 0 -8 407 -319 418 -319 4
0 14 17 21 38 43 119 167 268 288 345 138 88 250 121 413 121 163 0 301 -42
423 -130 l50 -36 183 183 c101 101 184 186 184 189 0 3 -35 31 -78 63 -132 99
-324 187 -480 222 -65 14 -226 35 -267 35 -11 -1 -275 -159 -587 -353z"/>
<path d="M2430 1512 c0 -4 -61 -264 -135 -577 -74 -313 -135 -574 -135 -579 0
-18 68 55 123 133 66 91 136 227 170 331 57 171 85 400 67 559 -15 139 -16
141 -56 141 -19 0 -34 -4 -34 -8z"/>
<path d="M1330 1175 l0 -135 307 0 c168 0 304 2 302 4 -3 3 -489 216 -576 253
l-33 13 0 -135z"/>
</g>
</svg>
